<svg width="32" height="32" viewBox="0 0 32 32" fill="none" xmlns="http://www.w3.org/2000/svg">
<path d="M6 0.5H26C29.0376 0.5 31.5 2.96243 31.5 6V26C31.5 29.0376 29.0376 31.5 26 31.5H6C2.96243 31.5 0.500001 29.0376 0.5 26V6C0.5 2.96243 2.96243 0.5 6 0.5Z" stroke="black"/>
<path d="M11.9238 7.13573C11.5929 7.38676 11.0782 7.9045 10.8471 8.22352C10.3692 8.89293 10.1854 9.41591 10.1591 10.2056C10.1486 10.5246 10.1223 10.7966 10.1013 10.8175C9.97528 10.9325 8.27364 11.8164 8.12134 11.8425C8.00579 11.8582 7.81147 11.8216 7.53837 11.7275C7.14447 11.5967 7.0867 11.5863 6.28314 11.6072C5.49009 11.6229 5.42182 11.6333 5.17498 11.7641C4.86511 11.9262 4.571 12.2191 4.42394 12.5119C4.27164 12.8153 3.95652 13.7357 3.80421 14.3162C3.5101 15.4354 3.45758 15.9427 3.43132 17.794L3.41031 19.5198L3.21599 19.9068L3.02166 20.2938L3.00591 21.6536C2.99015 22.642 3.00591 23.0813 3.05318 23.2539C3.14771 23.5938 3.56787 24.0018 3.89874 24.0854C4.08256 24.1325 6.45646 24.1482 13.3786 24.1482C23.3783 24.1482 23.121 24.1534 24.497 23.8658C25.1693 23.7246 29.103 22.6054 29.3131 22.4956C29.5231 22.391 29.7595 22.0772 29.833 21.8209C29.875 21.6797 29.8908 21.3712 29.875 20.9999C29.854 20.3514 29.7963 20.1892 29.4549 19.7709C29.3603 19.6506 29.1975 19.4048 29.0977 19.227C28.8719 18.8243 28.2784 18.2229 27.8688 17.9823C27.7007 17.8829 27.3751 17.7313 27.1387 17.6476C26.7133 17.4959 26.6923 17.4907 25.1588 17.4488C24.2186 17.4279 23.4046 17.3756 23.0895 17.3286C22.0023 17.156 20.8206 16.7847 19.8963 16.3244L19.3816 16.0734V15.6393C19.3816 15.2419 19.3711 15.1896 19.2503 15.0745C18.9719 14.7921 18.5413 14.9961 18.5413 15.4145V15.6237L18.1211 15.4145L17.7009 15.2053V14.7817C17.7009 14.4051 17.6852 14.3528 17.5696 14.2378C17.3018 13.9658 16.8606 14.1593 16.8606 14.5515C16.8606 14.6509 16.8501 14.7346 16.8396 14.7346C16.8239 14.7346 16.6348 14.6405 16.4195 14.5202L16.0203 14.3057V13.9187C16.0203 13.5736 16.0046 13.5108 15.889 13.401C15.6317 13.1395 15.18 13.3226 15.18 13.6939C15.18 13.8821 15.1695 13.8821 14.6706 13.605L14.3449 13.4271L14.3292 11.9733C14.3134 10.5612 14.3082 10.5194 14.1874 10.2893C14.1191 10.1585 13.9773 9.97027 13.867 9.8709C13.7094 9.72447 13.5729 9.45252 13.137 8.41702C12.7956 7.61687 12.554 7.12004 12.4857 7.07297C12.3177 6.95792 12.1286 6.97883 11.9238 7.13573ZM12.3912 8.80403C12.5382 9.15442 12.659 9.46821 12.659 9.49959C12.659 9.53096 12.617 9.55711 12.5593 9.55711C12.4647 9.55711 12.3859 9.59372 11.4563 10.0958L10.9627 10.3573L10.9994 10.0592C11.0519 9.6774 11.1937 9.25902 11.3933 8.91385C11.5929 8.56869 12.0288 8.07186 12.0813 8.12939C12.1076 8.1503 12.2441 8.45886 12.3912 8.80403ZM13.1842 10.42C13.4784 10.5717 13.4994 10.6763 13.4994 12.1406V13.4742L11.241 15.1216C10.0015 16.0263 8.88812 16.8213 8.76208 16.8893C8.42595 17.0618 7.84298 17.0514 7.48059 16.8683C7.14972 16.6958 6.99216 16.5232 6.57725 15.8485C6.08357 15.0588 5.66341 14.7241 4.9649 14.5725C4.79158 14.5359 4.63927 14.4993 4.62877 14.494C4.59201 14.4626 5.00691 13.2703 5.16972 12.9512C5.40081 12.4806 5.51635 12.4335 6.36717 12.4335C6.91338 12.4335 7.09195 12.4544 7.31253 12.5381C7.69067 12.6793 8.0268 12.7159 8.34192 12.6479C8.60452 12.5956 9.32404 12.2191 11.7137 10.9064C12.3177 10.5769 12.8008 10.3416 12.8849 10.3416C12.9637 10.3416 13.1002 10.3782 13.1842 10.42ZM14.6023 14.5097L15.18 14.813V15.1687C15.18 15.4772 15.1958 15.54 15.3113 15.6498C15.3901 15.7335 15.5004 15.7805 15.6002 15.7805C15.805 15.7805 16.0203 15.5766 16.0203 15.3883V15.2523L16.4405 15.4772L16.8606 15.7021V16.0316C16.8606 16.3088 16.8816 16.382 16.9919 16.4866C17.0707 16.5702 17.181 16.6173 17.2808 16.6173C17.4699 16.6173 17.7009 16.4186 17.7009 16.2512C17.7009 16.1519 17.7325 16.1623 18.1211 16.3558L18.5413 16.565V16.884C18.5413 17.1455 18.5623 17.2187 18.6726 17.3233C18.8406 17.4959 19.0822 17.4959 19.2503 17.3233C19.3238 17.2553 19.3816 17.1612 19.3816 17.1141C19.3816 17.0723 19.3921 17.0357 19.4026 17.0357C19.4131 17.0357 19.6179 17.1246 19.8595 17.2397C21.0412 17.7783 22.3384 18.113 23.788 18.2438C24.1976 18.2804 24.4497 18.3222 24.392 18.3431C24.3394 18.3641 23.914 18.5157 23.4571 18.6778C22.412 19.0492 22.1336 19.2008 21.6294 19.7081C21.3091 20.0324 21.183 20.2049 20.9992 20.5815C20.7891 21.0208 20.7628 21.0522 20.6421 21.026C20.411 20.9737 20.1064 20.8011 19.3711 20.2938C18.9719 20.0271 18.5518 19.7709 18.431 19.729C18.0738 19.6035 17.6642 19.6349 16.3774 19.9121C14.5287 20.2991 14.2662 20.3357 13.0424 20.3671C11.157 20.4141 10.5425 20.3148 7.38081 19.4362C5.60039 18.9393 5.22224 18.8504 4.91238 18.8557C4.7128 18.8557 4.48171 18.8818 4.39768 18.9132L4.25588 18.9707V17.8829C4.25588 16.9102 4.2979 16.2408 4.39243 15.5766L4.42919 15.3517L4.68129 15.3779C5.20649 15.4406 5.5006 15.6916 5.98903 16.4813C6.34091 17.0566 6.68755 17.407 7.11296 17.611C7.7747 17.9352 8.51523 17.9352 9.16648 17.6162C9.33979 17.5273 10.4742 16.7271 11.6874 15.8381C12.9006 14.9438 13.9248 14.2168 13.9615 14.2168C13.9983 14.2116 14.2872 14.3476 14.6023 14.5097ZM27.2858 18.6255C27.5799 18.7772 28.2627 19.3525 28.2049 19.3996C28.1891 19.4152 27.2018 19.6558 26.0148 19.933C24.8226 20.2154 23.3731 20.5553 22.7954 20.6913L21.745 20.9423L21.8658 20.7331C22.0181 20.4612 22.4277 20.0533 22.7113 19.8859C22.9057 19.7709 23.872 19.4152 26.2354 18.5889C26.5243 18.4843 26.8079 18.4164 26.8656 18.432C26.9234 18.4477 27.1125 18.5314 27.2858 18.6255ZM7.09195 20.2259C10.5267 21.1724 10.6108 21.1881 12.6328 21.1934C14.2977 21.1934 14.4237 21.1777 16.493 20.7384C17.1705 20.5972 17.8165 20.4769 17.932 20.4821C18.1001 20.4821 18.2787 20.5763 19.0139 21.0626C20.0171 21.7268 20.2954 21.8471 20.8784 21.8837C21.2828 21.9098 21.4404 21.8785 24.8646 21.0626C27.3698 20.4717 28.4833 20.2259 28.5988 20.2468C28.6933 20.2677 28.8246 20.3409 28.8929 20.4141C29.0085 20.5344 29.019 20.6024 29.0347 21.0783C29.0505 21.5438 29.04 21.6274 28.9559 21.7007C28.9034 21.7477 28.0001 22.0354 26.9444 22.3387C24.8069 22.9506 24.3499 23.0656 23.6567 23.1702L23.1788 23.2382L23.0947 23.0918C22.9319 22.8146 22.517 22.8407 22.3752 23.1388L22.2964 23.3114H21.267H20.2377L20.2061 23.0081C20.1431 22.3125 19.849 22.0301 18.7251 21.5856C18.0948 21.3398 17.8638 21.2718 17.6379 21.2718C17.2283 21.2718 13.6359 21.936 13.3996 22.051C13.0004 22.255 12.7221 22.6577 12.6695 23.0865L12.6433 23.3114H10.9784H9.30828L9.28727 22.9558C9.26101 22.5426 9.14022 22.2655 8.86712 21.9987C8.49948 21.6431 8.43645 21.6379 6.00479 21.6379H3.83572V21.0992C3.83572 20.5449 3.904 20.3043 4.13508 20.0376C4.35567 19.7813 4.71805 19.6401 5.04368 19.6872C5.14346 19.7029 6.06781 19.9434 7.09195 20.2259ZM18.4887 22.4014C19.2818 22.7205 19.3816 22.7989 19.3816 23.1545V23.3114H18.557H17.7272L17.6484 23.1388C17.6012 23.0447 17.5066 22.9506 17.4278 22.9244C17.2178 22.8512 17.0077 22.9401 16.9131 23.1388L16.8344 23.3114H15.159H13.4889L13.5204 23.1441C13.5886 22.8146 13.6149 22.8041 15.5266 22.4485C16.5087 22.2707 17.4068 22.119 17.5276 22.1138C17.6904 22.1086 17.9688 22.1923 18.4887 22.4014ZM8.30515 22.6263C8.4312 22.7571 8.45746 22.8198 8.45746 23.0447V23.3114H6.27789H4.09307L3.96702 23.1807C3.85673 23.0761 3.83572 23.0029 3.83572 22.7623V22.4747H5.99428H8.15285L8.30515 22.6263Z" fill="black"/>
<path d="M11.6316 11.9081C10.9004 12.2862 10.8597 12.3408 10.8829 13.0332L10.9004 13.5889L11.0977 13.7483C11.3182 13.9259 11.5678 13.9851 11.8638 13.935C12.0843 13.894 12.9607 13.2518 13.1 13.0241C13.2277 12.8191 13.2277 12.1814 13.1 11.9719C12.9781 11.7715 12.6879 11.6348 12.3919 11.6348C12.2062 11.6348 12.0553 11.6895 11.6316 11.9081ZM12.0379 12.8829L11.7999 13.0696V12.8829C11.7999 12.7143 11.8232 12.6824 12.0205 12.5822L12.2352 12.4684L12.2526 12.5822C12.27 12.6688 12.212 12.7462 12.0379 12.8829Z" fill="black"/>
<path d="M12.1974 15.9411C12.0687 16.0659 12.0635 16.0971 12.0635 16.7056V17.3349L11.2396 18.3751C10.3436 19.509 10.2973 19.6026 10.5444 19.847L10.668 19.9771H11.8421C13.1604 19.9771 13.9534 19.9198 14.8855 19.7638C15.6064 19.6442 16.9298 19.2905 17.213 19.1449C17.5941 18.9473 17.831 18.5468 17.831 18.1047C17.831 17.8654 17.6199 17.4234 17.4396 17.2777C17.2542 17.1321 15.2305 16.0971 14.8494 15.9567C14.6022 15.8683 14.4066 15.8475 13.4436 15.8267L12.3262 15.8059L12.1974 15.9411ZM14.5404 16.7524C14.9524 16.8877 16.9092 17.8915 16.9762 18.0059C17.0019 18.0527 17.0071 18.1463 16.9916 18.2191C16.9504 18.3803 16.7753 18.4584 15.9669 18.6716C14.7619 18.9941 13.4024 19.1657 12.285 19.1345L11.7031 19.1189L12.2953 18.3699L12.8875 17.621V17.1373V16.6484H13.5517C14.077 16.6484 14.283 16.6692 14.5404 16.7524Z" fill="black"/>
<path d="M10.5242 22.4393C10.4546 22.5262 10.4155 22.6479 10.4155 22.758C10.4155 22.868 10.4546 22.9897 10.5242 23.0766C10.6241 23.2156 10.6588 23.2214 11.1107 23.2214C11.5626 23.2214 11.5974 23.2156 11.6973 23.0766C11.7668 22.9897 11.8059 22.868 11.8059 22.758C11.8059 22.6479 11.7668 22.5262 11.6973 22.4393C11.5974 22.3003 11.5626 22.2945 11.1107 22.2945C10.6588 22.2945 10.6241 22.3003 10.5242 22.4393Z" fill="black"/>
</svg>
