<svg width="47" height="46" viewBox="0 0 47 46" fill="none" xmlns="http://www.w3.org/2000/svg">
<ellipse cx="23.9152" cy="23" rx="23.0197" ry="23" fill="black"/>
<path d="M22.4978 10.0778C21.5148 10.2813 20.7452 10.6881 20.0037 11.4002C18.9644 12.4004 18.4813 13.5532 18.4139 15.175L18.3802 15.9831H16.7062C15.6951 15.9831 14.9142 16.0057 14.7345 16.0452C13.8806 16.2261 13.2515 16.859 13.0661 17.7236C12.9818 18.1191 12.9762 33.6818 13.0605 34.1226C13.1897 34.812 13.6222 35.3884 14.2345 35.6936L14.5491 35.8462H23.509H32.4689L32.7891 35.6879C33.4014 35.3828 33.8283 34.8177 33.9575 34.1226C34.0418 33.6875 34.0361 18.1191 33.9519 17.7236C33.7721 16.8646 33.143 16.2317 32.2835 16.0452C32.1037 16.0057 31.3398 15.9831 30.3118 15.9831H28.6377L28.604 15.175C28.5366 13.5532 28.0535 12.4004 27.0143 11.4002C26.2503 10.6712 25.4021 10.2361 24.3853 10.0552C23.9359 9.97047 22.9472 9.98742 22.4978 10.0778ZM24.2898 11.8861C25.4077 12.1517 26.3739 13.1011 26.6885 14.2313C26.7334 14.4008 26.7896 14.8642 26.8064 15.2598L26.8402 15.9831H23.509H20.1778L20.2115 15.2598C20.2284 14.8642 20.2845 14.4008 20.3295 14.2313C20.6441 13.1011 21.599 12.1574 22.7113 11.8918C23.1382 11.7844 23.8516 11.7844 24.2898 11.8861ZM18.4083 18.6786C18.4252 19.498 18.4364 19.5884 18.56 19.7862C18.9026 20.3456 19.6442 20.3569 20.0486 19.8031C20.1553 19.6675 20.1722 19.5432 20.1947 18.7351L20.2228 17.8196H23.509H26.7952L26.8233 18.7351C26.8458 19.5432 26.8626 19.6675 26.9694 19.8031C27.3738 20.3569 28.1153 20.3456 28.458 19.7862C28.5816 19.5884 28.5928 19.498 28.6097 18.6786L28.6321 17.7914H30.3118C31.9184 17.7914 31.997 17.797 32.1037 17.9044C32.2161 18.0174 32.2161 18.0909 32.2161 25.9174C32.2161 32.9755 32.2048 33.8288 32.1262 33.9418L32.0419 34.0661H23.509H14.976L14.8918 33.9418C14.8131 33.8288 14.8019 32.9755 14.8019 25.9174C14.8019 18.0909 14.8019 18.0174 14.9142 17.9044C15.021 17.797 15.0996 17.7914 16.7062 17.7914H18.3858L18.4083 18.6786Z" fill="white"/>
</svg>
