<svg width="30" height="30" viewBox="0 0 30 30" fill="none" xmlns="http://www.w3.org/2000/svg">
<path d="M29.3379 14.3357C29.3406 14.3357 29.3425 14.3357 29.3451 14.3357C29.5279 14.3357 29.7021 14.259 29.8258 14.1248C29.9516 13.9886 30.0138 13.8058 29.9974 13.6211C29.3399 6.38888 23.6143 0.660959 16.3818 0.00211055C16.1984 -0.0122977 16.0137 0.0473 15.8775 0.173699C15.7413 0.299444 15.6653 0.476927 15.6673 0.662269C15.7813 10.2739 17.0491 14.2014 29.3379 14.3357ZM29.3379 15.6638C17.0491 15.7981 15.7819 19.7256 15.668 29.3372C15.666 29.5226 15.742 29.7001 15.8782 29.8258C16 29.9378 16.1591 30 16.3228 30C16.3425 30 16.3628 29.9994 16.3824 29.9974C23.6149 29.3385 29.3406 23.6113 29.9974 16.3784C30.0138 16.1937 29.9522 16.0109 29.8258 15.8747C29.6994 15.7385 29.5233 15.671 29.3379 15.6638ZM13.5743 0.00538521C6.36474 0.683226 0.657456 6.40984 0.00323024 13.6225C-0.0131418 13.8071 0.048417 13.9899 0.174809 14.1261C0.298581 14.2603 0.473434 14.3363 0.655491 14.3363C0.658111 14.3363 0.66073 14.3363 0.66335 14.3363C12.9116 14.1955 14.1761 10.2699 14.2914 0.664888C14.2934 0.479546 14.2168 0.301408 14.0805 0.175664C13.943 0.0499197 13.759 -0.0116427 13.5743 0.00538521ZM0.662695 15.6632C0.459027 15.6403 0.299236 15.7372 0.174154 15.8734C0.0484171 16.0096 -0.0137966 16.1924 0.00257541 16.377C0.656801 23.5897 6.36474 29.3163 13.5743 29.9941C13.5946 29.9961 13.6156 29.9967 13.6359 29.9967C13.7996 29.9967 13.9581 29.9352 14.0799 29.8232C14.2161 29.6974 14.2927 29.5193 14.2908 29.334C14.1755 19.7296 12.9116 15.804 0.662695 15.6632Z" fill="#FFEBEB"/>
</svg>
