<svg width="158" height="193" viewBox="0 0 158 193" fill="none" xmlns="http://www.w3.org/2000/svg">
<path d="M0.00843811 17C0.00843811 7.61114 7.6196 0 17.0084 0H141C150.389 0 158 7.61116 158 17V140.992C158 150.38 150.389 157.992 141 157.992H17.0084C7.61958 157.992 0.00843811 150.38 0.00843811 140.992V17Z" fill="#FFECEC"/>
<path d="M61.9949 36.9206C60.5752 37.9976 58.3669 40.2191 57.3754 41.5878C55.3249 44.4599 54.5362 46.7038 54.4235 50.092C54.3784 51.4608 54.2658 52.6276 54.1756 52.7173C53.6348 53.211 46.3339 57.0031 45.6804 57.1153C45.1847 57.1826 44.3509 57.0255 43.1792 56.6216C41.4891 56.0606 41.2413 56.0158 37.7936 56.1055C34.391 56.1728 34.0981 56.2177 33.039 56.7787C31.7095 57.4743 30.4476 58.7308 29.8166 59.9874C29.1632 61.2888 27.8111 65.238 27.1577 67.7287C25.8958 72.5305 25.6704 74.707 25.5578 82.6503L25.4676 90.055L24.6339 91.7154L23.8001 93.3759L23.7325 99.2099C23.6649 103.451 23.7325 105.336 23.9353 106.076C24.3409 107.535 26.1436 109.285 27.5633 109.644C28.3519 109.846 38.5372 109.913 68.2367 109.913C111.141 109.913 110.037 109.935 115.941 108.701C118.825 108.096 135.703 103.294 136.604 102.822C137.506 102.374 138.52 101.027 138.835 99.9279C139.015 99.3221 139.083 97.9982 139.015 96.4051C138.925 93.6227 138.677 92.9271 137.213 91.132C136.807 90.6159 136.108 89.5613 135.68 88.7984C134.711 87.0707 132.165 84.4902 130.407 83.4581C129.686 83.0317 128.289 82.381 127.275 82.022C125.45 81.3713 125.36 81.3488 118.78 81.1693C114.746 81.0796 111.254 80.8552 109.902 80.6532C105.237 79.9128 100.167 78.3196 96.2011 76.3451L93.9928 75.268V73.4056C93.9928 71.7003 93.9477 71.4759 93.4295 70.9823C92.2352 69.7706 90.3874 70.6457 90.3874 72.4408V73.3383L88.5847 72.4408L86.782 71.5432V69.7257C86.782 68.1101 86.7144 67.8857 86.2187 67.3921C85.0694 66.2253 83.1766 67.0555 83.1766 68.7384C83.1766 69.1647 83.1315 69.5237 83.0865 69.5237C83.0189 69.5237 82.2076 69.1199 81.2838 68.6038L79.5712 67.6838V66.0233C79.5712 64.5424 79.5036 64.2731 79.0079 63.8019C77.9037 62.68 75.9658 63.4654 75.9658 65.0585C75.9658 65.8663 75.9207 65.8663 73.78 64.677L72.3829 63.9141L72.3153 57.6762C72.2477 51.6178 72.2252 51.4383 71.7069 50.451C71.414 49.8901 70.8056 49.0823 70.3324 48.6559C69.6563 48.0277 69.0705 46.8609 67.2002 42.418C65.7355 38.9849 64.6989 36.8533 64.406 36.6513C63.6849 36.1577 62.8737 36.2474 61.9949 36.9206ZM64.0004 44.0785C64.6313 45.5819 65.1496 46.9282 65.1496 47.0628C65.1496 47.1974 64.9693 47.3096 64.7214 47.3096C64.3158 47.3096 63.9778 47.4667 59.9894 49.6208L57.8712 50.7427L58.0289 49.4637C58.2543 47.8257 58.8627 46.0306 59.7189 44.5497C60.5752 43.0688 62.4455 40.9371 62.6709 41.1839C62.7835 41.2737 63.3694 42.5975 64.0004 44.0785ZM67.403 51.012C68.6649 51.6627 68.755 52.1115 68.755 58.3942V64.1161L59.0655 71.1842C53.7475 75.0661 48.9703 78.4767 48.4295 78.7684C46.9874 79.5089 44.4861 79.464 42.9313 78.6787C41.5117 77.9382 40.8356 77.1977 39.0555 74.3032C36.9373 70.9149 35.1346 69.4789 32.1376 68.8282C31.394 68.6711 30.7405 68.514 30.6955 68.4916C30.5377 68.3569 32.3179 63.241 33.0164 61.8722C34.0079 59.8528 34.5037 59.6508 38.1541 59.6508C40.4976 59.6508 41.2638 59.7406 42.2102 60.0996C43.8326 60.7054 45.2748 60.8625 46.6268 60.5708C47.7535 60.3464 50.8406 58.7308 61.0935 53.0988C63.6849 51.6851 65.758 50.6754 66.1185 50.6754C66.4565 50.6754 67.0424 50.8325 67.403 51.012ZM73.4871 68.5589L75.9658 69.8603V71.3861C75.9658 72.71 76.0334 72.9793 76.5291 73.4505C76.8671 73.8095 77.3404 74.0114 77.7685 74.0114C78.6473 74.0114 79.5712 73.1363 79.5712 72.3286V71.7452L81.3739 72.71L83.1766 73.6749V75.0885C83.1766 76.2777 83.2667 76.5919 83.7399 77.0406C84.078 77.3997 84.5512 77.6016 84.9793 77.6016C85.7905 77.6016 86.782 76.7489 86.782 76.0309C86.782 75.6046 86.9172 75.6495 88.5847 76.4797L90.3874 77.3772V78.746C90.3874 79.8679 90.4775 80.182 90.9508 80.6308C91.6718 81.3713 92.7084 81.3713 93.4295 80.6308C93.7449 80.3391 93.9928 79.9352 93.9928 79.7333C93.9928 79.5538 94.0379 79.3967 94.0829 79.3967C94.128 79.3967 95.0068 79.7781 96.0434 80.2718C101.113 82.583 106.679 84.019 112.899 84.58C114.656 84.7371 115.738 84.9166 115.49 85.0063C115.265 85.0961 113.439 85.7468 111.479 86.4424C106.995 88.0355 105.801 88.6862 103.637 90.8628C102.263 92.254 101.722 92.9944 100.933 94.61C100.032 96.4948 99.9192 96.6295 99.4009 96.5173C98.4094 96.2929 97.1025 95.5524 93.9477 93.3759C92.2352 92.2315 90.4325 91.132 89.9142 90.9525C88.3819 90.414 86.6243 90.5486 81.1035 91.7379C73.1716 93.3983 72.0449 93.5554 66.7946 93.69C58.7049 93.892 56.0685 93.4656 42.5031 89.696C34.8642 87.5643 33.2418 87.1829 31.9123 87.2053C31.056 87.2053 30.0645 87.3175 29.704 87.4521L29.0956 87.6989V83.0317C29.0956 78.8582 29.2758 75.986 29.6814 73.1363L29.8392 72.1715L30.9208 72.2837C33.1742 72.5529 34.4361 73.63 36.5317 77.0182C38.0415 79.4864 39.5287 80.9898 41.3539 81.8649C44.1932 83.2561 47.3704 83.2561 50.1646 81.8874C50.9082 81.5059 55.7755 78.0728 60.9808 74.2583C66.1861 70.4213 70.5802 67.3023 70.738 67.3023C70.8957 67.2799 72.1351 67.8633 73.4871 68.5589ZM127.906 86.218C129.168 86.8687 132.097 89.3369 131.85 89.5389C131.782 89.6062 127.546 90.6384 122.453 91.8276C117.338 93.0393 111.118 94.4978 108.64 95.0812L104.133 96.1583L104.651 95.2607C105.305 94.0939 107.062 92.3437 108.279 91.6257C109.113 91.132 113.259 89.6062 123.399 86.0609C124.639 85.6122 125.856 85.3205 126.103 85.3878C126.351 85.4551 127.163 85.8141 127.906 86.218ZM41.2638 93.0842C56.0009 97.1455 56.3614 97.2129 65.0369 97.2353C72.1801 97.2353 72.7209 97.168 81.5992 95.2832C84.5061 94.6773 87.2777 94.1612 87.7735 94.1837C88.4946 94.1837 89.2607 94.5876 92.4154 96.6743C96.7194 99.524 97.9137 100.04 100.415 100.197C102.15 100.309 102.826 100.175 117.518 96.6743C128.267 94.1388 133.044 93.0842 133.54 93.1739C133.945 93.2637 134.509 93.5778 134.801 93.892C135.297 94.4081 135.342 94.6998 135.41 96.7417C135.477 98.7387 135.432 99.0977 135.072 99.4118C134.847 99.6138 130.971 100.848 126.441 102.149C117.27 104.775 115.31 105.268 112.335 105.717L110.285 106.009L109.924 105.38C109.226 104.191 107.445 104.303 106.837 105.582L106.499 106.323H102.082H97.6658L97.5306 105.021C97.2602 102.037 95.9983 100.825 91.1761 98.9182C88.472 97.8636 87.4806 97.5719 86.5116 97.5719C84.754 97.5719 69.3409 100.422 68.3268 100.915C66.6143 101.79 65.42 103.518 65.1947 105.358L65.082 106.323H57.9388H50.773L50.6829 104.797C50.5702 103.024 50.052 101.835 48.8802 100.691C47.3028 99.165 47.0324 99.1426 36.5993 99.1426H27.2929V96.8314C27.2929 94.4529 27.5858 93.4208 28.5773 92.2764C29.5237 91.1769 31.0785 90.5711 32.4756 90.773C32.9038 90.8403 36.8697 91.8725 41.2638 93.0842ZM90.1621 102.419C93.5647 103.787 93.9928 104.124 93.9928 105.65V106.323H90.455H86.8947L86.5567 105.582C86.3539 105.179 85.9483 104.775 85.6102 104.662C84.7089 104.348 83.8075 104.73 83.4019 105.582L83.0639 106.323H75.8757H68.7099L68.8451 105.605C69.1381 104.191 69.2507 104.146 77.453 102.621C81.6668 101.858 85.5201 101.207 86.0384 101.184C86.7369 101.162 87.9312 101.521 90.1621 102.419ZM46.4691 103.383C47.0099 103.944 47.1226 104.214 47.1226 105.179V106.323H37.7711H28.397L27.8562 105.762C27.383 105.313 27.2929 104.999 27.2929 103.967V102.733H36.5542H45.8156L46.4691 103.383Z" fill="black"/>
<path d="M60.7437 57.3955C57.606 59.0177 57.4316 59.2522 57.5312 62.2229L57.606 64.6072L58.4526 65.2913C59.3989 66.0535 60.4698 66.3076 61.7398 66.0926C62.6861 65.9167 66.4464 63.161 67.044 62.1838C67.5919 61.3043 67.5919 58.5682 67.044 57.6692C66.5211 56.8092 65.276 56.2229 64.0059 56.2229C63.209 56.2229 62.5616 56.4574 60.7437 57.3955ZM62.4869 61.5779L61.4659 62.3792V61.5779C61.4659 60.8548 61.5655 60.718 62.4122 60.288L63.3336 59.7994L63.4083 60.288C63.483 60.6594 63.2339 60.9916 62.4869 61.5779Z" fill="black"/>
<path d="M63.1688 74.7004C62.6165 75.236 62.5944 75.3699 62.5944 77.9807V80.6808L59.0593 85.1438C55.215 90.0085 55.0161 90.4102 56.0766 91.459L56.6069 92.0168H61.6443C67.3004 92.0168 70.7029 91.7714 74.702 91.1019C77.7951 90.5887 83.4733 89.0713 84.6885 88.4464C86.3235 87.5985 87.3398 85.8802 87.3398 83.9834C87.3398 82.957 86.4339 81.0602 85.6606 80.4354C84.8652 79.8105 76.1823 75.3699 74.5473 74.7674C73.4868 74.388 72.6472 74.2987 68.5156 74.2095L63.7212 74.1202L63.1688 74.7004ZM73.2217 78.1815C74.9892 78.7617 83.3849 83.0685 83.6722 83.5595C83.7826 83.7603 83.8047 84.162 83.7384 84.4744C83.5617 85.1661 82.8105 85.5009 79.3417 86.4158C74.1717 87.7993 68.3389 88.5357 63.5444 88.4018L61.0478 88.3349L63.5886 85.1215L66.1294 81.9082V79.8329V77.7352H68.9796C71.2332 77.7352 72.1169 77.8245 73.2217 78.1815Z" fill="black"/>
<path d="M55.9896 102.581C55.6913 102.954 55.5236 103.476 55.5236 103.948C55.5236 104.42 55.6913 104.942 55.9896 105.315C56.4184 105.912 56.5676 105.937 58.5065 105.937C60.4454 105.937 60.5945 105.912 61.0233 105.315C61.3216 104.942 61.4894 104.42 61.4894 103.948C61.4894 103.476 61.3216 102.954 61.0233 102.581C60.5945 101.984 60.4454 101.959 58.5065 101.959C56.5676 101.959 56.4184 101.984 55.9896 102.581Z" fill="black"/>
<path d="M6.32 188.28C5.17333 188.28 4.06667 188.14 3 187.86C1.94667 187.567 1.08667 187.193 0.42 186.74L1.72 183.82C2.34667 184.22 3.06667 184.553 3.88 184.82C4.70667 185.073 5.52667 185.2 6.34 185.2C6.88667 185.2 7.32667 185.153 7.66 185.06C7.99333 184.953 8.23333 184.82 8.38 184.66C8.54 184.487 8.62 184.287 8.62 184.06C8.62 183.74 8.47333 183.487 8.18 183.3C7.88667 183.113 7.50667 182.96 7.04 182.84C6.57333 182.72 6.05333 182.6 5.48 182.48C4.92 182.36 4.35333 182.207 3.78 182.02C3.22 181.833 2.70667 181.593 2.24 181.3C1.77333 180.993 1.39333 180.6 1.1 180.12C0.806667 179.627 0.66 179.007 0.66 178.26C0.66 177.42 0.886667 176.66 1.34 175.98C1.80667 175.3 2.5 174.753 3.42 174.34C4.34 173.927 5.48667 173.72 6.86 173.72C7.78 173.72 8.68 173.827 9.56 174.04C10.4533 174.24 11.2467 174.54 11.94 174.94L10.72 177.88C10.0533 177.52 9.39333 177.253 8.74 177.08C8.08667 176.893 7.45333 176.8 6.84 176.8C6.29333 176.8 5.85333 176.86 5.52 176.98C5.18667 177.087 4.94667 177.233 4.8 177.42C4.65333 177.607 4.58 177.82 4.58 178.06C4.58 178.367 4.72 178.613 5 178.8C5.29333 178.973 5.67333 179.12 6.14 179.24C6.62 179.347 7.14 179.46 7.7 179.58C8.27333 179.7 8.84 179.853 9.4 180.04C9.97333 180.213 10.4933 180.453 10.96 180.76C11.4267 181.053 11.8 181.447 12.08 181.94C12.3733 182.42 12.52 183.027 12.52 183.76C12.52 184.573 12.2867 185.327 11.82 186.02C11.3667 186.7 10.68 187.247 9.76 187.66C8.85333 188.073 7.70667 188.28 6.32 188.28ZM22.8292 176.98C23.6692 176.98 24.4292 177.153 25.1092 177.5C25.7892 177.833 26.3226 178.353 26.7092 179.06C27.1092 179.767 27.3092 180.68 27.3092 181.8V188H23.5092V182.42C23.5092 181.647 23.3492 181.087 23.0292 180.74C22.7226 180.38 22.2892 180.2 21.7292 180.2C21.3292 180.2 20.9626 180.293 20.6292 180.48C20.2959 180.653 20.0359 180.927 19.8492 181.3C19.6626 181.673 19.5692 182.16 19.5692 182.76V188H15.7692V177.16H19.3892V180.24L18.6892 179.34C19.1026 178.553 19.6692 177.967 20.3892 177.58C21.1092 177.18 21.9226 176.98 22.8292 176.98ZM37.1117 188.18C35.8317 188.18 34.7117 187.94 33.7517 187.46C32.8051 186.967 32.0651 186.3 31.5317 185.46C31.0117 184.607 30.7517 183.64 30.7517 182.56C30.7517 181.48 31.0051 180.52 31.5117 179.68C32.0317 178.827 32.7451 178.167 33.6517 177.7C34.5584 177.22 35.5784 176.98 36.7117 176.98C37.7784 176.98 38.7517 177.2 39.6317 177.64C40.5117 178.067 41.2117 178.7 41.7317 179.54C42.2517 180.38 42.5117 181.4 42.5117 182.6C42.5117 182.733 42.5051 182.887 42.4917 183.06C42.4784 183.233 42.4651 183.393 42.4517 183.54H33.8717V181.54H40.4317L38.9917 182.1C39.0051 181.607 38.9117 181.18 38.7117 180.82C38.5251 180.46 38.2584 180.18 37.9117 179.98C37.5784 179.78 37.1851 179.68 36.7317 179.68C36.2784 179.68 35.8784 179.78 35.5317 179.98C35.1984 180.18 34.9384 180.467 34.7517 180.84C34.5651 181.2 34.4717 181.627 34.4717 182.12V182.7C34.4717 183.233 34.5784 183.693 34.7917 184.08C35.0184 184.467 35.3384 184.767 35.7517 184.98C36.1651 185.18 36.6584 185.28 37.2317 185.28C37.7651 185.28 38.2184 185.207 38.5917 185.06C38.9784 184.9 39.3584 184.66 39.7317 184.34L41.7317 186.42C41.2117 186.993 40.5717 187.433 39.8117 187.74C39.0517 188.033 38.1517 188.18 37.1117 188.18ZM52.1908 188V185.98L51.9308 185.48V181.76C51.9308 181.16 51.7441 180.7 51.3708 180.38C51.0108 180.047 50.4308 179.88 49.6308 179.88C49.1108 179.88 48.5841 179.967 48.0508 180.14C47.5174 180.3 47.0641 180.527 46.6908 180.82L45.4108 178.24C46.0241 177.84 46.7574 177.533 47.6108 177.32C48.4774 177.093 49.3374 176.98 50.1908 176.98C51.9508 176.98 53.3108 177.387 54.2708 178.2C55.2441 179 55.7308 180.26 55.7308 181.98V188H52.1908ZM48.9908 188.18C48.1241 188.18 47.3908 188.033 46.7908 187.74C46.1908 187.447 45.7308 187.047 45.4108 186.54C45.1041 186.033 44.9508 185.467 44.9508 184.84C44.9508 184.173 45.1174 183.6 45.4508 183.12C45.7974 182.627 46.3241 182.253 47.0308 182C47.7374 181.733 48.6508 181.6 49.7708 181.6H52.3308V183.58H50.2908C49.6774 183.58 49.2441 183.68 48.9908 183.88C48.7508 184.08 48.6308 184.347 48.6308 184.68C48.6308 185.013 48.7574 185.28 49.0108 185.48C49.2641 185.68 49.6108 185.78 50.0508 185.78C50.4641 185.78 50.8374 185.68 51.1708 185.48C51.5174 185.267 51.7708 184.947 51.9308 184.52L52.4508 185.92C52.2508 186.667 51.8574 187.233 51.2708 187.62C50.6974 187.993 49.9374 188.18 48.9908 188.18ZM62.8894 186L62.9894 181.46L67.4094 177.16H71.9094L67.0094 182.22L65.0694 183.78L62.8894 186ZM59.7294 188V173.16H63.5294V188H59.7294ZM67.6894 188L64.3694 183.84L66.7294 180.92L72.2894 188H67.6894ZM80.2516 188.18C78.9716 188.18 77.8516 187.94 76.8916 187.46C75.9449 186.967 75.2049 186.3 74.6716 185.46C74.1516 184.607 73.8916 183.64 73.8916 182.56C73.8916 181.48 74.1449 180.52 74.6516 179.68C75.1716 178.827 75.8849 178.167 76.7916 177.7C77.6982 177.22 78.7182 176.98 79.8516 176.98C80.9182 176.98 81.8916 177.2 82.7716 177.64C83.6516 178.067 84.3516 178.7 84.8716 179.54C85.3916 180.38 85.6516 181.4 85.6516 182.6C85.6516 182.733 85.6449 182.887 85.6316 183.06C85.6182 183.233 85.6049 183.393 85.5916 183.54H77.0116V181.54H83.5716L82.1316 182.1C82.1449 181.607 82.0516 181.18 81.8516 180.82C81.6649 180.46 81.3982 180.18 81.0516 179.98C80.7182 179.78 80.3249 179.68 79.8716 179.68C79.4182 179.68 79.0182 179.78 78.6716 179.98C78.3382 180.18 78.0782 180.467 77.8916 180.84C77.7049 181.2 77.6116 181.627 77.6116 182.12V182.7C77.6116 183.233 77.7182 183.693 77.9316 184.08C78.1582 184.467 78.4782 184.767 78.8916 184.98C79.3049 185.18 79.7982 185.28 80.3716 185.28C80.9049 185.28 81.3582 185.207 81.7316 185.06C82.1182 184.9 82.4982 184.66 82.8716 184.34L84.8716 186.42C84.3516 186.993 83.7116 187.433 82.9516 187.74C82.1916 188.033 81.2916 188.18 80.2516 188.18ZM89.0036 188V177.16H92.6236V180.32L92.0836 179.42C92.4036 178.607 92.9236 178 93.6436 177.6C94.3636 177.187 95.2369 176.98 96.2636 176.98V180.4C96.0903 180.373 95.9369 180.36 95.8036 180.36C95.6836 180.347 95.5503 180.34 95.4036 180.34C94.6303 180.34 94.0036 180.553 93.5236 180.98C93.0436 181.393 92.8036 182.073 92.8036 183.02V188H89.0036ZM103.411 188.18C102.491 188.18 101.591 188.073 100.711 187.86C99.8441 187.647 99.1441 187.38 98.6108 187.06L99.7508 184.46C100.257 184.767 100.851 185.013 101.531 185.2C102.211 185.373 102.877 185.46 103.531 185.46C104.171 185.46 104.611 185.393 104.851 185.26C105.104 185.127 105.231 184.947 105.231 184.72C105.231 184.507 105.111 184.353 104.871 184.26C104.644 184.153 104.337 184.073 103.951 184.02C103.577 183.967 103.164 183.907 102.711 183.84C102.257 183.773 101.797 183.687 101.331 183.58C100.877 183.46 100.457 183.287 100.071 183.06C99.6974 182.82 99.3974 182.5 99.1708 182.1C98.9441 181.7 98.8308 181.193 98.8308 180.58C98.8308 179.887 99.0308 179.273 99.4308 178.74C99.8441 178.193 100.444 177.767 101.231 177.46C102.017 177.14 102.977 176.98 104.111 176.98C104.871 176.98 105.637 177.06 106.411 177.22C107.197 177.367 107.857 177.593 108.391 177.9L107.251 180.48C106.717 180.173 106.184 179.967 105.651 179.86C105.117 179.74 104.611 179.68 104.131 179.68C103.491 179.68 103.037 179.753 102.771 179.9C102.517 180.047 102.391 180.227 102.391 180.44C102.391 180.653 102.504 180.82 102.731 180.94C102.957 181.047 103.257 181.133 103.631 181.2C104.017 181.253 104.437 181.313 104.891 181.38C105.344 181.433 105.797 181.52 106.251 181.64C106.717 181.76 107.137 181.94 107.511 182.18C107.897 182.407 108.204 182.72 108.431 183.12C108.657 183.507 108.771 184.007 108.771 184.62C108.771 185.287 108.564 185.887 108.151 186.42C107.751 186.953 107.151 187.38 106.351 187.7C105.564 188.02 104.584 188.18 103.411 188.18ZM112.188 188V174H119.348C121.188 174 122.562 174.34 123.468 175.02C124.375 175.687 124.828 176.567 124.828 177.66C124.828 178.38 124.635 179.013 124.248 179.56C123.875 180.093 123.342 180.52 122.648 180.84C121.968 181.147 121.155 181.3 120.208 181.3L120.608 180.34C121.595 180.34 122.455 180.493 123.188 180.8C123.922 181.093 124.488 181.527 124.888 182.1C125.302 182.66 125.508 183.347 125.508 184.16C125.508 185.373 125.015 186.32 124.028 187C123.055 187.667 121.628 188 119.748 188H112.188ZM116.108 185.14H119.428C120.108 185.14 120.622 185.027 120.968 184.8C121.328 184.56 121.508 184.2 121.508 183.72C121.508 183.24 121.328 182.887 120.968 182.66C120.622 182.42 120.108 182.3 119.428 182.3H115.828V179.56H118.828C119.495 179.56 119.995 179.447 120.328 179.22C120.662 178.993 120.828 178.653 120.828 178.2C120.828 177.747 120.662 177.413 120.328 177.2C119.995 176.973 119.495 176.86 118.828 176.86H116.108V185.14ZM133.539 188.18C132.659 188.18 131.866 188.007 131.159 187.66C130.466 187.313 129.919 186.773 129.519 186.04C129.133 185.293 128.939 184.353 128.939 183.22V177.16H132.739V182.6C132.739 183.44 132.893 184.04 133.199 184.4C133.519 184.76 133.966 184.94 134.539 184.94C134.913 184.94 135.253 184.853 135.559 184.68C135.866 184.507 136.113 184.233 136.299 183.86C136.486 183.473 136.579 182.98 136.579 182.38V177.16H140.379V188H136.759V184.94L137.459 185.8C137.086 186.6 136.546 187.2 135.839 187.6C135.133 187.987 134.366 188.18 133.539 188.18ZM146.287 192.06C145.714 192.06 145.134 191.967 144.547 191.78C143.974 191.607 143.507 191.373 143.147 191.08L144.467 188.42C144.694 188.62 144.954 188.773 145.247 188.88C145.554 189 145.854 189.06 146.147 189.06C146.56 189.06 146.887 188.967 147.127 188.78C147.367 188.593 147.574 188.3 147.747 187.9L148.247 186.64L148.547 186.26L152.227 177.16H155.847L151.167 188.44C150.794 189.373 150.36 190.1 149.867 190.62C149.387 191.153 148.847 191.527 148.247 191.74C147.66 191.953 147.007 192.06 146.287 192.06ZM147.767 188.46L142.987 177.16H146.887L150.407 185.92L147.767 188.46Z" fill="white"/>
</svg>
