<svg width="30" height="30" viewBox="0 0 30 30" fill="none" xmlns="http://www.w3.org/2000/svg">
<path d="M15 0C23.2846 0 30 6.71543 30 15C30 23.2846 23.2846 30 15 30C6.71543 30 0 23.2846 0 15C0 6.71543 6.71543 0 15 0ZM20.1743 21.1141C20.4502 20.2676 21.7428 11.8311 21.9026 10.1687C21.9509 9.66522 21.7917 9.33065 21.48 9.1813C21.103 9 20.5448 9.09065 19.8972 9.32413C19.0089 9.64435 7.65326 14.4659 6.99717 14.745C6.375 15.0091 5.78674 15.2974 5.78674 15.7148C5.78674 16.0083 5.96087 16.1733 6.44087 16.3448C6.94044 16.5228 8.19848 16.9043 8.9413 17.1091C9.65674 17.3067 10.4713 17.1352 10.9278 16.8515C11.4117 16.5509 16.9963 12.8139 17.3974 12.4865C17.7978 12.1591 18.1174 12.5785 17.79 12.9065C17.4626 13.2339 13.6291 16.9546 13.1237 17.4698C12.51 18.0952 12.9457 18.7435 13.3572 19.003C13.8274 19.2991 17.2089 21.5674 17.7183 21.9313C18.2276 22.2952 18.7441 22.4602 19.217 22.4602C19.6898 22.4602 19.9389 21.8374 20.1743 21.1141Z" fill="#FFEBEB"/>
</svg>
