<svg width="49" height="49" viewBox="0 0 49 49" fill="none" xmlns="http://www.w3.org/2000/svg">
<path d="M0 17C0 7.61116 7.61116 0 17 0H32C41.3888 0 49 7.61116 49 17V32C49 41.3888 41.3888 49 32 49H17C7.61116 49 0 41.3888 0 32V17Z" fill="black"/>
<path d="M19.2912 13.1566C18.9096 13.4461 18.316 14.0432 18.0495 14.4111C17.4984 15.183 17.2864 15.7862 17.2561 16.6969C17.244 17.0648 17.2137 17.3784 17.1895 17.4025C17.0441 17.5352 15.0817 18.5544 14.9061 18.5846C14.7728 18.6027 14.5487 18.5605 14.2338 18.4519C13.7795 18.3011 13.7129 18.2891 12.7862 18.3132C11.8717 18.3313 11.7929 18.3434 11.5082 18.4941C11.1509 18.6811 10.8117 19.0188 10.6421 19.3566C10.4665 19.7064 10.1031 20.7679 9.92744 21.4373C9.58826 22.728 9.52769 23.313 9.49741 25.448L9.47318 27.4383L9.24908 27.8846L9.02498 28.3309L9.00681 29.899C8.98864 31.0389 9.00681 31.5455 9.06132 31.7445C9.17035 32.1366 9.65488 32.607 10.0365 32.7035C10.2484 32.7578 12.9861 32.7759 20.9689 32.7759C32.5009 32.7759 32.2041 32.7819 33.791 32.4502C34.5662 32.2873 39.1027 30.9967 39.345 30.87C39.5873 30.7494 39.8598 30.3875 39.9446 30.092C39.9931 29.9292 40.0113 29.5733 39.9931 29.1451C39.9689 28.3973 39.9022 28.2103 39.5085 27.7278C39.3995 27.5891 39.2118 27.3056 39.0967 27.1006C38.8363 26.6362 38.1518 25.9426 37.6794 25.6652C37.4856 25.5506 37.1101 25.3757 36.8375 25.2792C36.3469 25.1043 36.3227 25.0982 34.5541 25.05C33.47 25.0259 32.5312 24.9655 32.1678 24.9113C30.914 24.7122 29.5513 24.284 28.4853 23.7533L27.8917 23.4638V22.9632C27.8917 22.5048 27.8796 22.4445 27.7403 22.3118C27.4193 21.9862 26.9226 22.2214 26.9226 22.7039V22.9451L26.4381 22.7039L25.9536 22.4626V21.9741C25.9536 21.5399 25.9354 21.4795 25.8022 21.3469C25.4933 21.0332 24.9845 21.2564 24.9845 21.7087C24.9845 21.8233 24.9724 21.9198 24.9603 21.9198C24.9421 21.9198 24.7241 21.8113 24.4757 21.6725L24.0154 21.4253V20.979C24.0154 20.5809 23.9972 20.5085 23.864 20.3819C23.5672 20.0803 23.0463 20.2914 23.0463 20.7196C23.0463 20.9367 23.0342 20.9367 22.4588 20.6171L22.0833 20.412L22.0651 18.7354C22.047 17.107 22.0409 17.0587 21.9016 16.7934C21.8229 16.6426 21.6593 16.4255 21.5321 16.3109C21.3504 16.142 21.193 15.8284 20.6903 14.6342C20.2966 13.7114 20.018 13.1385 19.9392 13.0842C19.7454 12.9515 19.5274 12.9756 19.2912 13.1566ZM19.8302 15.0805C19.9998 15.4846 20.1391 15.8465 20.1391 15.8827C20.1391 15.9188 20.0906 15.949 20.024 15.949C19.915 15.949 19.8241 15.9912 18.7521 16.5702L18.1828 16.8718L18.2252 16.528C18.2857 16.0877 18.4493 15.6052 18.6794 15.2072C18.9096 14.8091 19.4123 14.2362 19.4729 14.3025C19.5031 14.3266 19.6606 14.6825 19.8302 15.0805ZM20.7448 16.9441C21.084 17.119 21.1082 17.2397 21.1082 18.9284V20.4663L18.5038 22.3661C17.0744 23.4095 15.7904 24.3262 15.645 24.4046C15.2574 24.6037 14.5851 24.5916 14.1672 24.3805C13.7856 24.1815 13.6039 23.9825 13.1254 23.2044C12.5561 22.2937 12.0715 21.9078 11.266 21.7329C11.0661 21.6906 10.8905 21.6484 10.8783 21.6424C10.8359 21.6062 11.3144 20.2311 11.5022 19.8632C11.7687 19.3204 11.9019 19.2661 12.8831 19.2661C13.513 19.2661 13.719 19.2902 13.9733 19.3867C14.4094 19.5496 14.7971 19.5918 15.1605 19.5134C15.4633 19.4531 16.2931 19.0188 19.0489 17.505C19.7454 17.1251 20.3026 16.8537 20.3995 16.8537C20.4904 16.8537 20.6479 16.8959 20.7448 16.9441ZM22.3801 21.6605L23.0463 22.0103V22.4204C23.0463 22.7762 23.0645 22.8486 23.1978 22.9753C23.2886 23.0718 23.4158 23.126 23.5309 23.126C23.7671 23.126 24.0154 22.8908 24.0154 22.6737V22.5169L24.5 22.7762L24.9845 23.0356V23.4155C24.9845 23.7352 25.0087 23.8196 25.1359 23.9402C25.2268 24.0367 25.354 24.091 25.469 24.091C25.6871 24.091 25.9536 23.8618 25.9536 23.6688C25.9536 23.5543 25.9899 23.5663 26.4381 23.7895L26.9226 24.0307V24.3986C26.9226 24.7002 26.9469 24.7846 27.0741 24.9052C27.2679 25.1043 27.5465 25.1043 27.7403 24.9052C27.8251 24.8268 27.8917 24.7183 27.8917 24.664C27.8917 24.6157 27.9038 24.5735 27.916 24.5735C27.9281 24.5735 28.1643 24.676 28.4429 24.8087C29.8057 25.4299 31.3017 25.8159 32.9733 25.9667C33.4458 26.0089 33.7365 26.0572 33.6699 26.0813C33.6093 26.1054 33.1187 26.2803 32.5918 26.4673C31.3865 26.8955 31.0655 27.0704 30.484 27.6554C30.1145 28.0294 29.9692 28.2284 29.7572 28.6626C29.5149 29.1692 29.4846 29.2054 29.3453 29.1753C29.0788 29.115 28.7276 28.9159 27.8796 28.3309C27.4193 28.0233 26.9348 27.7278 26.7955 27.6795C26.3836 27.5348 25.9112 27.571 24.4273 27.8906C22.2953 28.3369 21.9925 28.3792 20.5812 28.4153C18.4069 28.4696 17.6982 28.355 14.0521 27.3418C11.9988 26.7688 11.5628 26.6663 11.2054 26.6723C10.9753 26.6723 10.7088 26.7025 10.6118 26.7387L10.4483 26.805V25.5506C10.4483 24.4288 10.4968 23.6568 10.6058 22.8908L10.6482 22.6315L10.9389 22.6616C11.5446 22.734 11.8838 23.0235 12.447 23.9342C12.8528 24.5976 13.2526 25.0017 13.7432 25.2369C14.5063 25.6109 15.3603 25.6109 16.1114 25.243C16.3112 25.1404 17.6195 24.2177 19.0186 23.1924C20.4177 22.1611 21.5988 21.3227 21.6412 21.3227C21.6836 21.3167 22.0167 21.4735 22.3801 21.6605ZM37.0071 26.407C37.3463 26.5819 38.1337 27.2453 38.067 27.2996C38.0489 27.3177 36.9102 27.5951 35.5414 27.9148C34.1665 28.2404 32.4948 28.6325 31.8286 28.7893L30.6173 29.0788L30.7566 28.8375C30.9322 28.5239 31.4046 28.0535 31.7317 27.8605C31.9558 27.7278 33.0702 27.3177 35.7958 26.3648C36.1289 26.2441 36.456 26.1657 36.5226 26.1838C36.5892 26.2019 36.8072 26.2984 37.0071 26.407ZM13.719 28.2525C17.6801 29.3441 17.777 29.3622 20.1088 29.3683C22.0288 29.3683 22.1742 29.3502 24.5605 28.8436C25.3418 28.6807 26.0868 28.542 26.2201 28.548C26.4139 28.548 26.6198 28.6566 27.4678 29.2175C28.6246 29.9834 28.9456 30.1222 29.6179 30.1644C30.0843 30.1945 30.266 30.1583 34.215 29.2175C37.104 28.536 38.3881 28.2525 38.5213 28.2766C38.6303 28.3008 38.7817 28.3852 38.8605 28.4696C38.9937 28.6083 39.0058 28.6867 39.024 29.2356C39.0422 29.7724 39.0301 29.8688 38.9332 29.9533C38.8726 30.0076 37.8308 30.3393 36.6134 30.6891C34.1483 31.3947 33.6214 31.5274 32.8219 31.648L32.2707 31.7264L32.1738 31.5576C31.9861 31.2379 31.5076 31.2681 31.3441 31.6118L31.2532 31.8109H30.0661H28.879L28.8426 31.4611C28.77 30.6589 28.4308 30.3332 27.1346 29.8206C26.4078 29.5371 26.1413 29.4587 25.8809 29.4587C25.4085 29.4587 21.2657 30.2247 20.9931 30.3574C20.5328 30.5926 20.2118 31.057 20.1512 31.5515L20.1209 31.8109H18.2009H16.2749L16.2507 31.4008C16.2204 30.9243 16.0811 30.6046 15.7661 30.2971C15.3422 29.8869 15.2695 29.8809 12.4652 29.8809H9.96378V29.2597C9.96378 28.6204 10.0425 28.343 10.309 28.0354C10.5634 27.7399 10.9813 27.577 11.3568 27.6313C11.4719 27.6494 12.5379 27.9268 13.719 28.2525ZM26.8621 30.7615C27.7766 31.1294 27.8917 31.2198 27.8917 31.6299V31.8109H26.9408H25.9839L25.893 31.6118C25.8385 31.5033 25.7295 31.3947 25.6386 31.3646C25.3963 31.2801 25.1541 31.3827 25.0451 31.6118L24.9542 31.8109H23.0221H21.0961L21.1324 31.6179C21.2111 31.2379 21.2414 31.2259 23.4461 30.8157C24.5787 30.6107 25.6144 30.4358 25.7537 30.4297C25.9415 30.4237 26.2625 30.5202 26.8621 30.7615ZM15.1181 31.0208C15.2634 31.1716 15.2937 31.2439 15.2937 31.5033V31.8109H12.7802H10.2606L10.1152 31.6601C9.98801 31.5395 9.96378 31.455 9.96378 31.1776V30.8459H12.4531H14.9424L15.1181 31.0208Z" fill="white"/>
<path d="M18.9548 18.66C18.1115 19.096 18.0647 19.159 18.0914 19.9574L18.1115 20.5983L18.3391 20.7821C18.5934 20.987 18.8812 21.0553 19.2226 20.9975C19.4769 20.9502 20.4876 20.2096 20.6482 19.9469C20.7954 19.7106 20.7954 18.9752 20.6482 18.7335C20.5076 18.5024 20.173 18.3448 19.8316 18.3448C19.6175 18.3448 19.4434 18.4079 18.9548 18.66ZM19.4234 19.7841L19.1489 19.9995V19.7841C19.1489 19.5897 19.1757 19.553 19.4033 19.4374L19.6509 19.3061L19.671 19.4374C19.6911 19.5372 19.6241 19.6265 19.4234 19.7841Z" fill="white"/>
<path d="M19.6067 23.3111C19.4582 23.4551 19.4523 23.4911 19.4523 24.1928V24.9186L18.5021 26.1182C17.4688 27.4257 17.4153 27.5337 17.7004 27.8156L17.8429 27.9655H19.1969C20.7172 27.9655 21.6317 27.8995 22.7066 27.7196C23.538 27.5816 25.0642 27.1738 25.3908 27.0058C25.8303 26.7779 26.1035 26.3161 26.1035 25.8063C26.1035 25.5304 25.86 25.0205 25.6521 24.8526C25.4383 24.6846 23.1045 23.4911 22.665 23.3291C22.38 23.2271 22.1543 23.2032 21.0438 23.1792L19.7551 23.1552L19.6067 23.3111ZM22.3087 24.2468C22.7838 24.4027 25.0404 25.5603 25.1177 25.6923C25.1473 25.7463 25.1533 25.8542 25.1355 25.9382C25.088 26.1241 24.886 26.2141 23.9537 26.46C22.5641 26.8319 20.9963 27.0298 19.7076 26.9938L19.0366 26.9759L19.7195 26.1122L20.4024 25.2485V24.6906V24.1268H21.1685C21.7742 24.1268 22.0118 24.1508 22.3087 24.2468Z" fill="white"/>
<path d="M17.677 30.805C17.5968 30.9052 17.5517 31.0455 17.5517 31.1724C17.5517 31.2994 17.5968 31.4397 17.677 31.5399C17.7922 31.7002 17.8323 31.7069 18.3535 31.7069C18.8746 31.7069 18.9147 31.7002 19.0299 31.5399C19.1101 31.4397 19.1552 31.2994 19.1552 31.1724C19.1552 31.0455 19.1101 30.9052 19.0299 30.805C18.9147 30.6446 18.8746 30.6379 18.3535 30.6379C17.8323 30.6379 17.7922 30.6446 17.677 30.805Z" fill="white"/>
</svg>
