<?xml version="1.0" standalone="no"?>
<!DOCTYPE svg PUBLIC "-//W3C//DTD SVG 20010904//EN"
 "http://www.w3.org/TR/2001/REC-SVG-20010904/DTD/svg10.dtd">
<svg version="1.0" xmlns="http://www.w3.org/2000/svg"
 width="512.000000pt" height="512.000000pt" viewBox="0 0 512.000000 512.000000"
 preserveAspectRatio="xMidYMid meet">

<g transform="translate(0.000000,512.000000) scale(0.100000,-0.100000)"
fill="#000000" stroke="none">
<path d="M2375 4794 c-108 -11 -262 -38 -367 -65 -756 -187 -1380 -789 -1596
-1539 -68 -235 -87 -373 -86 -635 0 -249 16 -372 78 -598 206 -746 807 -1347
1553 -1553 224 -61 349 -77 598 -78 242 -1 343 11 559 65 621 155 1161 592
1453 1174 90 179 172 440 209 670 25 152 25 485 1 645 -76 490 -289 913 -636
1261 -344 344 -771 561 -1251 634 -101 15 -432 28 -515 19z m490 -338 c202
-36 347 -83 524 -167 740 -354 1173 -1138 1076 -1949 -79 -665 -485 -1230
-1090 -1516 -522 -246 -1120 -244 -1644 7 -400 192 -709 501 -901 901 -84 176
-129 318 -167 528 -24 133 -24 467 0 600 38 210 83 352 167 528 122 254 284
463 495 640 291 244 638 394 1025 441 107 14 408 6 515 -13z"/>
<path d="M1855 3666 c-41 -18 -83 -69 -90 -109 -3 -18 -5 -154 -3 -304 3 -256
4 -273 24 -299 39 -53 71 -69 134 -69 63 0 95 16 134 69 20 26 21 40 21 326 0
286 -1 300 -21 326 -11 15 -32 37 -46 47 -33 25 -113 32 -153 13z"/>
<path d="M3135 3666 c-41 -18 -83 -69 -90 -109 -3 -18 -5 -154 -3 -304 3 -256
4 -273 24 -299 39 -53 71 -69 134 -69 63 0 95 16 134 69 20 26 21 40 21 326 0
286 -1 300 -21 326 -11 15 -32 37 -46 47 -33 25 -113 32 -153 13z"/>
<path d="M2350 2225 c-321 -49 -613 -202 -836 -438 -99 -104 -118 -141 -112
-208 8 -84 71 -139 158 -139 59 0 86 18 168 109 199 220 474 350 777 368 189
11 367 -27 550 -117 136 -66 249 -151 345 -260 72 -81 102 -100 160 -100 85 0
148 54 157 135 9 75 -10 108 -136 234 -210 212 -445 341 -729 401 -130 28
-372 35 -502 15z"/>
</g>
</svg>
